<?xml version="1.0" encoding="utf-8"?><svg version="1.1" id="Layer_1" xmlns="http://www.w3.org/2000/svg" xmlns:xlink="http://www.w3.org/1999/xlink" x="0px" y="0px" viewBox="0 0 122.88 118.73" style="enable-background:new 0 0 122.88 118.73" xml:space="preserve"><g><path d="M14.08,25.81l0.35-0.51l-8.61,1.22c-1.4,0.2-2.74-0.19-3.78-0.98c-1.04-0.79-1.79-1.98-1.98-3.38 c-0.2-1.4,0.19-2.74,0.98-3.78c0.79-1.04,1.98-1.79,3.38-1.98l22.33-3.14l0.06-0.01c0.14-0.02,0.27-0.03,0.42-0.03v0 c1.39-0.04,2.67,0.48,3.61,1.36c0.95,0.89,1.56,2.13,1.62,3.53c0.3,7.66,0.59,15.33,0.83,22.99c0.05,1.4-0.47,2.69-1.36,3.64 c-0.89,0.95-2.13,1.56-3.54,1.62l-0.05,0c-1.4,0.05-2.69-0.47-3.64-1.36c-0.95-0.88-1.56-2.13-1.62-3.53 c-0.13-3.39-0.24-6.78-0.37-10.17c-0.74,1.07-1.47,2.22-2.2,3.53c-2.48,4.41-4.25,9.13-5.3,13.97c-1.06,4.89-1.38,9.9-0.94,14.86 c0.43,4.89,1.59,9.71,3.48,14.29c1.83,4.43,4.36,8.65,7.58,12.48h0.01c1.19,1.42,2.43,2.76,3.71,4.01c1.3,1.27,2.65,2.47,4.04,3.59 c3.11,2.5,6.4,4.58,9.82,6.23c3.49,1.68,7.1,2.92,10.79,3.72l1.21,0.26v10.38l-1.81-0.34c-4.74-0.89-9.39-2.38-13.87-4.46 c-4.38-2.04-8.6-4.65-12.55-7.83c-1.63-1.31-3.21-2.72-4.75-4.23c-1.5-1.47-2.97-3.06-4.4-4.76c-3.93-4.67-7-9.79-9.23-15.17 c-2.31-5.57-3.71-11.4-4.22-17.29c-0.52-5.97-0.14-12.01,1.14-17.9c1.26-5.82,3.39-11.49,6.39-16.81 C12.4,28.37,13.23,27.05,14.08,25.81L14.08,25.81z M86.24,114.7c-4.09,1.73-8.31,2.97-12.57,3.72l-1.79,0.32v-10.35l1.23-0.25 c3.12-0.63,6.21-1.59,9.22-2.86c2.96-1.25,5.83-2.82,8.58-4.7l1.05-0.71l7.3,7.3l-1.47,1.05C94.13,110.84,90.26,113,86.24,114.7 L86.24,114.7z M118.85,82.21c-1.71,4.05-3.89,7.92-6.51,11.53l-1.05,1.45l-7.3-7.3l0.73-1.05c1.87-2.7,3.44-5.57,4.71-8.55 c1.27-2.98,2.23-6.1,2.87-9.29l0.25-1.23h10.33l-0.31,1.79C121.82,73.9,120.58,78.14,118.85,82.21L118.85,82.21z M121.23,43.92 c0.47,1.69,0.86,3.37,1.17,5.06l0.34,1.81h-10.35l-0.26-1.21c-0.26-1.21-0.56-2.4-0.9-3.56c-0.34-1.18-0.73-2.35-1.17-3.51 c-0.71-1.92-1.53-3.8-2.43-5.63c-0.9-1.82-1.88-3.56-2.94-5.21l-0.66-1.04l7.33-7.33l1.04,1.54c1.44,2.14,2.77,4.4,3.98,6.77 c1.21,2.37,2.29,4.82,3.23,7.34C120.23,40.61,120.77,42.27,121.23,43.92L121.23,43.92z M89.23,4.87c3.16,1.44,6.13,3.17,8.89,5.15 l1.47,1.05l-7.31,7.31l-1.04-0.71c-2.13-1.44-4.4-2.7-6.79-3.76c-2.35-1.04-4.81-1.87-7.39-2.5c-1.15-0.28-2.37-0.52-3.64-0.71 c-1.22-0.19-2.45-0.32-3.67-0.4c-1.27-0.08-2.54-0.11-3.81-0.08c-1.26,0.03-2.56,0.12-3.9,0.27h-0.01c-1.4,0.15-2.73-0.28-3.75-1.1 c-1.02-0.82-1.73-2.03-1.88-3.43c-0.15-1.4,0.28-2.73,1.1-3.75c0.82-1.02,2.03-1.73,3.43-1.88c1.59-0.17,3.19-0.28,4.79-0.32 c1.6-0.04,3.15-0.01,4.67,0.09c1.54,0.1,3.05,0.26,4.52,0.48c1.5,0.23,3.02,0.53,4.55,0.9C82.89,2.32,86.15,3.46,89.23,4.87 L89.23,4.87z"/></g></svg>